<?xml version="1.0" encoding="utf-8"?>
<!-- Generator: Adobe Illustrator 19.0.0, SVG Export Plug-In . SVG Version: 6.00 Build 0)  -->
<svg version="1.1" id="Layer_1" xmlns="http://www.w3.org/2000/svg" xmlns:xlink="http://www.w3.org/1999/xlink" x="0px" y="0px"
	 viewBox="0 0 800 300" style="enable-background:new 0 0 800 300;" xml:space="preserve">
<style type="text/css">
	.st0{fill:#09486A;}
	.st1{fill:#1A1A1A;}
	.st2{display:none;fill:url(#XMLID_395_);stroke:#1A1A1A;stroke-width:4;stroke-miterlimit:10;}
	.st3{fill:#F8E600;}
</style>
<g id="XMLID_272_">
	<path id="XMLID_273_" class="st0" d="M239.7,255.5l6.7-10.5h5.6v0.5l-10,14.7V271h-5v-10.9l-9-14.7V245h5.2L239.7,255.5z"/>
	<path id="XMLID_275_" class="st0" d="M279.2,258.1c-0.1,6.6-4.1,13.1-13,13.1c-8.9,0-13-6.4-13-13.1c0-6.7,4.3-13.4,13-13.4
		C274.9,244.7,279.3,251.4,279.2,258.1z M257.8,258.2c0.1,4.2,2.4,8.6,8.3,8.6c6,0,8.2-4.5,8.3-8.7c0.1-4.3-2.3-9.1-8.3-9.1
		C260.2,249.1,257.7,253.9,257.8,258.2z"/>
	<path id="XMLID_278_" class="st0" d="M305,245v14.8c0,7.5-4.5,11.3-10.9,11.3c-6.1,0-11.1-3.7-11.1-11.3V245h4v14.8
		c0,4.6,2.7,7,6.7,7c3.9,0,6.3-2.6,6.3-7V245H305z"/>
	<path id="XMLID_280_" class="st0" d="M316,250h-8v-5c7,0,14,0,21,0v5h-8v21h-5V250z"/>
	<path id="XMLID_282_" class="st0" d="M349,271v-11h-12v11h-5v-26h5v11h12v-11h5v26H349z"/>
	<path id="XMLID_284_" class="st0" d="M385,271h-19c0-9,0-17,0-26h19v5h-15v6h14v4h-14v6h15V271z"/>
	<path id="XMLID_286_" class="st0" d="M410,252.2l-7.8,10.8h-0.9l-8.2-10.8V271h-5v-26h5.9l7.9,10.9l7.9-10.9h5.3v26h-5V252.2z"/>
	<path id="XMLID_288_" class="st0" d="M432,263h-8v8h-4v-25.8c4,0,8,0,12,0C444,245.2,444,263,432,263z M424,259h8c6,0,6-9,0-9h-8
		V259z"/>
	<path id="XMLID_291_" class="st0" d="M469.1,258.1c-0.1,6.6-4.1,13.1-13,13.1c-8.9,0-13-6.4-13-13.1c0-6.7,4.3-13.4,13-13.4
		C464.8,244.7,469.2,251.4,469.1,258.1z M447.8,258.2c0.1,4.2,2.4,8.6,8.3,8.6c6,0,8.2-4.5,8.3-8.7c0.1-4.3-2.3-9.1-8.3-9.1
		C450.1,249.1,447.6,253.9,447.8,258.2z"/>
	<path id="XMLID_294_" class="st0" d="M498.9,271h-4.1l-3.2-8.2l-2.7-8.1l-2.6,8.2l-3.1,8h-4.1l-9.3-26h5.4l6,18.3l6.2-18.3h3.1
		l6.3,18.3l5.8-18.3h5.4L498.9,271z"/>
	<path id="XMLID_296_" class="st0" d="M530,271h-19c0-9,0-17,0-26h19v5h-14v6h13v4h-13v6h14V271z"/>
	<path id="XMLID_298_" class="st0" d="M556,271h-5.7l-7.4-9H538v9h-4v-25.8c4,0,7.8,0,11.8,0c6,0,9,4,9,8.4c0,3.5-1.7,7-6.5,8
		l7.6,8.7V271z M538,250v8h7.6c3,0,4.3-2,4.3-4s-1.3-4-4.3-4H538z"/>
	<path id="XMLID_301_" class="st0" d="M580,252.2l-8.2,10.8h-0.9l-7.9-10.8V271h-5v-26h5.5l7.9,10.9l7.9-10.9h5.6v26h-5V252.2z"/>
	<path id="XMLID_303_" class="st0" d="M608,271h-19c0-9,0-17,0-26h19v5h-14v6h14v4h-14v6h14V271z"/>
	<path id="XMLID_305_" class="st0" d="M629,245h5v26h-3v-0.4l-13-17.1V271h-5v-26h4l12,16V245z"/>
	<path id="XMLID_307_" class="st0" d="M645,250h-8v-5c7,0,14,0,21,0v5h-8v21h-5V250z"/>
	<path id="XMLID_309_" class="st0" d="M674,245h20v2.5L680.6,266H694v5h-20v-3.1l12.8-17.9H674V245z"/>
	<path id="XMLID_311_" class="st0" d="M721.6,258.1c-0.1,6.6-4.1,13.1-13,13.1s-13-6.4-13-13.1c0-6.7,4.3-13.4,13-13.4
		C717.3,244.7,721.7,251.4,721.6,258.1z M700.3,258.2c0.1,4.2,2.4,8.6,8.3,8.6c6,0,8.2-4.5,8.3-8.7c0.1-4.3-2.3-9.1-8.3-9.1
		C702.6,249.1,700.2,253.9,700.3,258.2z"/>
	<path id="XMLID_314_" class="st0" d="M742,245h5v26h-3v-0.4l-14-17.1V271h-5v-26h4.3l12.7,16V245z"/>
	<path id="XMLID_316_" class="st0" d="M770,271h-19c0-9,0-17,0-26h19v5h-14v6h13v4h-13v6h14V271z"/>
</g>
<g id="XMLID_318_">
	<g id="XMLID_451_">
		<path id="XMLID_456_" class="st1" d="M354,195.2l0.6,10.1c0.4,4.7,1.5,7.9,3,9.7c1.5,1.8,3.9,2.9,7,3.3c3.1,0.4,6,0.6,8.6,0.8
			c2.6,0.1,4.8,0.3,6.8,0.4v3.5H274v-3.5l14.2-0.7c4.4-0.4,7.2-1.5,8.9-3.3c1.6-1.8,2.3-5,2.8-9.8l0.2-10.1v-40.7l-41.1-67.4
			c-5-7.7-8.7-12.8-11.6-15.3c-2.8-2.5-6.5-4-11.2-4.6L230,67v-4h102v4l-11.3,0.4c-3.1,0.3-5.2,0.7-6.5,1.3c-1.3,0.6-1.9,2-1.9,4.2
			c0,1.6,0.3,3.2,0.9,4.7c0.6,1.5,2,4.3,4.4,8.3c2.3,4,6.8,11.3,13.5,22c6.6,10.6,13,20.8,19.1,30.4c5-8.6,10.4-17.9,16.2-27.9
			c5.8-10,10.2-17.6,13-23c2.8-5.3,4.3-9.7,4.3-13c0-3.9-3.3-6.3-9.7-7L365,67v-4h53v4l-6,0.4c-5,0-9.3,1-12.6,2.8
			c-3.4,1.9-6.9,5.7-10.6,11.3c-3.7,5.6-8.9,14.1-15.4,25.4c-6.5,11.3-12.4,22.6-19.4,33.8V195.2z"/>
		<path id="XMLID_454_" class="st1" d="M488,218.6c6-0.1,12.4-0.3,18.8-0.3c6.4-0.1,13.2-0.6,20.3-1.5c7.1-0.9,16-8.4,26.5-21.9
			c10.5-13.5,18.2-26.9,23.2-41.9h3.2v70H408v-3.5c2,0,4.2-0.1,6.7-0.3c2.5-0.2,5.4-0.5,8.5-0.9c3.1-0.4,5.6-1.5,7.3-3.3
			c1.7-1.8,2.7-5.1,3.1-9.7l0.4-10.1V91.5l-0.4-10.1c-0.4-4.7-1.5-7.9-3.2-9.8c-1.8-1.9-4.2-3.1-7.3-3.5c-3.1-0.4-5.8-0.7-8.4-0.8
			c-2.6-0.1-4.7-0.2-6.7-0.3v-4h168v65h-3.6c-7.4-16-16.5-30-27.1-41.1c-10.6-11.2-19.6-17-26.8-17.8c-7.2-0.7-13.3-0.9-18.3-1.1
			c-5-0.1-8.2,0-9.8,0h-2l-0.4,71.6l9.2-0.5c8.5-0.9,14.8-4.9,19.1-12c4.3-7.1,6.5-15.1,6.5-25.1h4.2v80h-4.2
			c0-10-2.2-18.5-6.5-25.8c-4.3-7.3-10.7-11.5-19.1-12.4l-9.2-0.5V218.6z"/>
		<path id="XMLID_452_" class="st1" d="M660,218.6c6-0.1,10.9-0.3,15.5-0.3c4.6-0.1,10-0.2,16.1-0.3c10.5,0,22.4-8,35.8-23.9
			c13.3-15.9,23.8-32.1,31.4-47.1h3.2v76H595v-2.4L702,68.7v-1.1l-25.4,0.7c-11.1,0-23.4,7.7-36.6,22.8c-13.2,15-23.9,30-31.7,46
			H605V63h162v2.9L660,217.5V218.6z"/>
	</g>
</g>
<linearGradient id="XMLID_395_" gradientUnits="userSpaceOnUse" x1="128" y1="-80" x2="128" y2="182">
	<stop  offset="0" style="stop-color:#018491"/>
	<stop  offset="0.362" style="stop-color:#05687F"/>
	<stop  offset="0.7555" style="stop-color:#085170"/>
	<stop  offset="1" style="stop-color:#09486A"/>
</linearGradient>
<path id="XMLID_5281_" class="st2" d="M219,182H65.2C49.6,182,37,169.6,37,154V-51.6C37-67.2,49.6-80,65.2-80h126
	c15.6,0,27.8,12.8,27.8,28.4V182z"/>
<path id="XMLID_5280_" class="st3" d="M62.6,165.7c-6.2-0.1-10.8-7.9-10.3-17.4c0.5-9.5,5.9-17.1,12.1-17
	c6.2,0.1,10.8,7.9,10.3,17.4C74.2,158.2,68.8,165.8,62.6,165.7z"/>
<ellipse id="XMLID_5291_" class="st1" cx="113.5" cy="258.5" rx="66.6" ry="19.1"/>
<path id="XMLID_5279_" class="st3" d="M110.8,257.6c-72.1-49.7-75-123-75-124.1c0.2,0.5,5,16.7,10.6,28.1
	c9.5,19.2,21.3,12.8,27.5,5.4c9-10.5,15.2-41.4,15.2-41.4S76.3,208.5,110.8,257.6z"/>
<path id="XMLID_5278_" class="st0" d="M112.5,258.1c94.3-109.4,83.9-212.6,79.7-237c-0.1-0.8-1.4-0.8-1.4,0.1
	c-0.7,9.6-2.5,30-6.5,46.4c-9,37-34.1,34.2-49.4,26.5C118.7,86,100.3,59,91.7,45.5c-0.5-0.7-1.6-0.2-1.3,0.7
	c12.8,32.2,54.2,146.6,20.9,211.2C110.9,258,111.9,258.7,112.5,258.1z"/>
<ellipse id="XMLID_5277_" transform="matrix(0.9406 -0.3394 0.3394 0.9406 -10.9508 52.9858)" class="st0" cx="146" cy="57.8" rx="22.4" ry="28.7"/>
</svg>
